<svg xmlns="http://www.w3.org/2000/svg" xmlns:xlink="http://www.w3.org/1999/xlink" fill="none" version="1.1" width="14" height="14" viewBox="0 0 14 14"><defs><clipPath id="master_svg0_2_003375/2_43054/2_25936"><rect x="0" y="0" width="14" height="14" rx="0"/></clipPath></defs><g clip-path="url(#master_svg0_2_003375/2_43054/2_25936)"><path d="M6.9997153359375,12.833369270507813C3.7779653359375,12.833369270507813,1.1663818359375,10.221786470507812,1.1663818359375,7.000035770507813C1.1663818359375,3.7782852705078125,3.7779653359375,1.1667022705078125,6.9997153359375,1.1667022705078125C10.2214651359375,1.1667022705078125,12.8330488359375,3.7782857705078126,12.8330488359375,7.000035770507813C12.8330488359375,10.221785570507812,10.2214651359375,12.833369270507813,6.9997153359375,12.833369270507813ZM6.9997153359375,11.666702270507812C9.5770445359375,11.666702270507812,11.6663818359375,9.577364970507812,11.6663818359375,7.000035770507813C11.6663818359375,4.422706870507812,9.5770445359375,2.3333689705078124,6.9997153359375,2.3333689705078124C4.4223864359375,2.3333689705078124,2.3330485359375,4.422706870507812,2.3330485359375,7.000035770507813C2.3330485359375,9.577364970507812,4.4223864359375,11.666702270507812,6.9997153359375,11.666702270507812ZM7.5830488359375,7.000035770507813L9.9163818359375,7.000035770507813L9.9163818359375,8.166702270507812L6.4163818359375,8.166702270507812L6.4163818359375,4.083368970507813L7.5830488359375,4.083368970507813L7.5830488359375,7.000035770507813Z" fill="#505266" fill-opacity="1"/></g></svg>