<svg xmlns="http://www.w3.org/2000/svg" xmlns:xlink="http://www.w3.org/1999/xlink" fill="none" version="1.1" width="20" height="20" viewBox="0 0 20 20"><defs><clipPath id="master_svg0_135_71456/135_64517/96_44965"><rect x="0" y="0" width="20" height="20" rx="0"/></clipPath></defs><g clip-path="url(#master_svg0_135_71456/135_64517/96_44965)"><path d="M16.38437403515625,9.695440259375C15.57619703515625,10.680221559375,13.70011303515625,10.497855159375,13.01214403515625,9.742642359375C11.96785103515625,8.594803359375,10.31500723515625,8.749277559374999,9.65065093515625,9.931446059375C9.84813313515625,9.297451959375,10.31822683515625,8.693495259375,10.95897293515625,8.274052159375C11.81652003515625,7.711933159375,12.87691303515625,7.532783459375,13.86647103515625,7.781661959375L13.89974403515625,7.647568659375C12.87262003515625,7.390108059375,11.77358703515625,7.576766959375,10.88384243515625,8.158195059375C10.26027103515625,8.567984559374999,9.80412963515625,9.123667759375,9.57444953515625,9.729768759375C10.47170733515625,4.239451359375,17.73562603515625,4.481892359375,18.99994303515625,9.496982559375C18.13810303515625,8.644149759375,17.10668803515625,8.816862059375,16.38437403515625,9.695440259375ZM15.28319303515625,7.505965259375L14.73797203515625,7.718369459375L14.31080803515625,7.323597859375L14.34729803515625,7.903953559375L13.83642003515625,8.188232459375001L14.40203503515625,8.333052659375L14.51580003515625,8.905898059375L14.82919803515625,8.414580359375L15.40984103515625,8.480017659375001L15.03848603515625,8.031609559375L15.28319203515625,7.503818959375M9.45853423515625,10.126686059375C9.51863863515625,9.839188559375,9.61845203515625,9.584947559375,9.75261113515625,9.352161359375C9.55083653515625,9.870299359375,9.52829743515625,10.011900859375,9.51434423515625,10.161012659375C9.49502563515625,10.151358559375,9.47785373515625,10.137413959375,9.45853423515625,10.126686059375ZM9.25246623515625,9.999028159375C9.31900883515625,10.046228359375,9.38877203515625,10.086992259375,9.45853423515625,10.126686059375C9.45531563515625,10.144921259375,9.44994833515625,10.163158459375,9.44672963515625,10.180321659375C9.37803933515625,10.122394559375,9.31149573515625,10.062321659375,9.25246623515625,9.999028159375ZM8.08152483515625,8.251523959375C7.80998613515625,7.265668859375,7.96668343515625,6.206869159375,8.50975993515625,5.346525159375L8.39277363515625,5.272505759375C7.82930473515625,6.167177659375,7.66724013515625,7.265668359375,7.94951203515625,8.289069659375C8.15021513515625,9.014245959375,8.546252235156249,9.623566659375,9.06357003515625,10.029064159375C4.06747933515625,7.489873859375,6.54674293515625,0.658622379375,11.73387603515625,1.012628296375C10.65416333515625,1.566164609375,10.49960993515625,2.596003559375,11.11459803515625,3.551820759375C11.80471303515625,4.621349559375,11.05127503515625,6.340962459375,10.11859993515625,6.760406059375C8.702950035156249,7.395471559375,8.33589123515625,9.003519059375,9.25139333515625,9.999029159375C8.71046303515625,9.616058359375,8.28222703515625,8.986355759375,8.08045153515625,8.251524459375M8.775931335156251,4.929227359375L8.88862653515625,5.501000359375L9.20416923515625,5.009682659375L9.78373813515625,5.077265759375L9.41238403515625,4.628857359375L9.65709113515625,4.102138959375L9.11401553515625,4.314542959375L8.68577763515625,3.919772859375L8.72119663515625,4.500127759375L8.211390935156249,4.784405659375L8.775931335156251,4.929227359375ZM9.38984493515625,10.244687059375C9.27607723515625,10.180321659375,9.16660403515625,10.109520959375,9.06142333515625,10.027991259375C9.18163113515625,10.089138059375,9.30720423515625,10.147067059375,9.43599513515625,10.203924159375C9.42096993515625,10.217867859375,9.40487103515625,10.230740559375,9.38877203515625,10.244687059375M9.20846363515625,10.397018459375C9.27285863515625,10.348743459375,9.33188913515625,10.298324559375,9.38984493515625,10.244687059375C9.40594573515625,10.253269159375,9.41989703515625,10.266142859375,9.43599603515625,10.274723059375C9.36086753515625,10.320852259375,9.28466513515625,10.360542259375,9.20739083515625,10.395945559375M7.17031433515625,10.970937759375C6.14533853515625,10.923734659375,5.18153713515625,10.448508259375,4.52791403515625,9.668622959375L4.4205866351562495,9.756587059375C5.09996893515625,10.567583059375,6.09918693515625,11.061046859375,7.16387513515625,11.110395859375C7.90872673515625,11.144722859375,8.60528233515625,10.962354659375,9.14943213515625,10.607274959375C5.18368343515625,14.519581859375,-0.54867366484375,10.070900959375,1.38858664515625,5.274651559375C1.58284908515625,6.468618359375,2.51874423515625,6.935263159375,3.62099693515625,6.645620359375C4.85526203515625,6.323797259375,6.26554443515625,7.569256759375,6.37716533515625,8.581929159375001C6.54566953515625,10.122394559375,7.97419643515625,10.966646159375,9.20846363515625,10.398090359375C8.67397113515625,10.796079659375,7.93770603515625,11.007407859375,7.17031433515625,10.970937759375ZM4.66636533515625,8.379180859375001L4.122215535156251,8.590512259375L3.69290593515625,8.196814559375L3.72832413515625,8.777169659375L3.21851893515625,9.061448059375L3.78413413515625,9.206268359375L3.89790153515625,9.778042759375L4.2123704351562505,9.287796959375L4.79086543515625,9.355380059375L4.41951273515625,8.906970959375L4.66529253515625,8.378108059375M9.47892663515625,10.347670559375C9.37589263515625,10.440999959375,9.26749133515625,10.528965959375,9.14943213515625,10.606204059375C9.25139233515625,10.505365359375,9.35335443515625,10.402382859375,9.45316883515625,10.289742459375C9.46282763515625,10.307980559375,9.46926883515625,10.328362459375,9.47892663515625,10.347670559375ZM9.56586263515625,10.561145759375C9.54117583515625,10.488199259375,9.51005173515625,10.417399359375,9.47892663515625,10.347670559375C9.49287983515625,10.335871659375,9.50897793515625,10.326216659375,9.52185823515625,10.313342059375C9.54225163515625,10.397018459375,9.55620293515625,10.478545159375,9.56586263515625,10.561145759375ZM7.42575403515625,14.775968859375L7.47727013515625,14.903627859375C8.46039013515625,14.509927859375,9.23958683515625,13.716095859375,9.61523243515625,12.722730859375C9.87925723515625,12.027589859375,9.92004303515625,11.310996859375,9.74831773515625,10.686658859375C12.25978103515625,15.653477859375,6.24085903515625,19.708453859375,2.25901113515625,16.391525859375C3.45785903515625,16.574967859375,4.19305133515625,15.832625859375,4.2585210351562495,14.699803859375C4.33150343515625,13.430745859375,5.95643993515625,12.480291859375,6.95887943515625,12.689477859375C8.482928235156251,13.005937859375,9.73221973515625,11.910663859375,9.56586263515625,10.561145759375C9.78266333515625,11.190850859375,9.75690553515625,11.957865859375,9.48643973515625,12.674459859375C9.12474533515625,13.632421859375,8.37238123515625,14.396217859375,7.42575403515625,14.775968859375ZM7.20895243515625,14.428399859375L6.66480253515625,14.640802859375L6.23656513515625,14.246032859375L6.27198313515625,14.826387859375L5.76217843515625,15.109592859375L6.32779313515625,15.255487859375L6.44263453515625,15.827259859375L6.75602913515625,15.337012859375L7.33774473515625,15.405669859375L6.96531773515625,14.958337859375L7.21002533515625,14.429471859375M9.60342693515625,10.296178859375C9.66031073515625,10.421689959375,9.71075443515625,10.550419759375,9.74831773515625,10.686658859375C9.68392273515625,10.559000059375,9.61738013515625,10.431344959375,9.54117773515625,10.302616159375C9.56156923515625,10.299397459375,9.58303453515625,10.299397459375,9.60342693515625,10.296178859375ZM9.83739943515625,10.279014559375C9.75797843515625,10.280086559375,9.68070223515625,10.287596659375,9.60342693515625,10.296178859375C9.59591393515625,10.279014559375,9.59269423515625,10.260780359375,9.58410643515625,10.243615159375C9.67104243515625,10.250051459375,9.75583173515625,10.262926059375,9.83739943515625,10.279014559375ZM13.19567503515625,13.607747859375L13.33412703515625,13.599165859375C13.26329003515625,12.546802859375,12.74490003515625,11.562018859375,11.91418503515625,10.900134059375C11.33032403515625,10.433490759375,10.65845583515625,10.173884359375,10.00805093515625,10.143846559375C15.52790103515625,9.296378159375,17.54243703515625,16.253138859375,13.14308603515625,18.999370859375C13.69045303515625,17.920188859375,13.20962803515625,16.994408859375,12.14601303515625,16.583545859375C10.95682333515625,16.124410859375,10.55112743515625,14.290012859375,11.05985803515625,13.402850859375C11.83261803515625,12.059773859375,11.17362903515625,10.540762859375,9.83847423515625,10.276867859375C10.50497623515625,10.266139959375,11.22836203515625,10.526820159375,11.82939603515625,11.005262859375C12.63006003515625,11.643546859375,13.12805903515625,12.592930859375,13.19674903515625,13.606675859375M12.88979103515625,14.716968859375L13.00248503515625,15.287669859375L13.31695703515625,14.797422859375L13.89759503515625,14.865007859375L13.52624503515625,14.416597859375L13.76987603515625,13.888806859375L13.22680303515625,14.101213859375L12.79749003515625,13.707514859375L12.83290903515625,14.287870859375L12.32310403515625,14.572148859375L12.88871903515625,14.716969859375M9.59376713515625,10.158866859375C9.73007293515625,10.143848459375,9.86852453515625,10.138483959375,10.00805093515625,10.144921259375C9.86637873515625,10.166377059375,9.72470663515625,10.189977659375,9.57874203515625,10.222157459375C9.58196063515625,10.200706459375,9.58840183515625,10.180321659375,9.59269423515625,10.159939759375M9.52185823515625,10.165304159375C9.52901743515625,10.165304159375,9.53438373515625,10.164949459375,9.53795723515625,10.164231259375C9.53688433515625,10.167449959375,9.53473853515625,10.169595759375,9.53366473515625,10.172814359375C9.51863863515625,10.165304159375,9.50575923515625,10.154575359375,9.49609943515625,10.142775559375M9.50468543515625,10.236104959375L9.49395273515625,10.168522859375C9.50039193515625,10.168522859375,9.50683213515625,10.168522859375,9.51327133515625,10.166377059375C9.51112553515625,10.189977659375,9.50683213515625,10.211431459375,9.50468543515625,10.236104959375ZM9.50468543515625,10.235032059375C9.50396633515625,10.234312059375,9.50325873515625,10.233605359375,9.50253963515625,10.232886359375L9.50468543515625,10.235032059375ZM9.50146583515625,10.236104959375L9.50468543515625,10.236104959375C9.50396633515625,10.236104959375,9.50289253515625,10.236104959375,9.50146583515625,10.236104959375ZM9.50468543515625,10.236104959375L9.47356133515625,10.297251659375C9.46819303515625,10.294033059375,9.46282763515625,10.290814359375,9.45638753515625,10.287596659375C9.47248743515625,10.269363359375,9.48858643515625,10.254343059375,9.50468543515625,10.237177859375M9.51971153515625,10.303688959375C9.51828383515625,10.303688959375,9.51684573515625,10.303688959375,9.51541803515625,10.303688959375L9.50468543515625,10.236104959375C9.51112463515625,10.258634559375,9.51434423515625,10.281160359375,9.51971153515625,10.303688959375ZM9.51005173515625,10.236104959375C9.50790593515625,10.236104959375,9.50647833515625,10.236104959375,9.50575923515625,10.236104959375L9.51005173515625,10.236104959375ZM9.53259083515625,10.172814359375C9.53401753515625,10.173532459375,9.53509233515625,10.174238159375,9.53581043515625,10.174959159375L9.50468543515625,10.236104959375C9.51327133515625,10.213577259375,9.52400393515625,10.194269159375,9.53259083515625,10.172814359375ZM9.56693553515625,10.204994159375C9.57015513515625,10.210358659375,9.57122893515625,10.216794959375,9.57444863515625,10.222157459375C9.55083653515625,10.227521859375,9.52937033515625,10.229667659375,9.50575923515625,10.235032059375L9.56693553515625,10.204994159375ZM9.57981493515625,10.222157459375C9.57909683515625,10.225730859375,9.57838823515625,10.228241959375,9.57766913515625,10.229667659375C9.57766913515625,10.227521859375,9.57552333515625,10.225376159375,9.57444953515625,10.223230359375L9.57874203515625,10.223230359375M9.58410833515625,10.243614159375C9.57981493515625,10.243614159375,9.57659623515625,10.243614159375,9.57444953515625,10.243614159375C9.57444953515625,10.239322659375,9.57659623515625,10.233959159375,9.57766913515625,10.229667659375C9.57981493515625,10.235032059375,9.58196163515625,10.239322659375,9.58410833515625,10.244687059375M9.57337473515625,10.246831859375L9.50897793515625,10.236104959375C9.53151703515625,10.237177859375,9.55190943515625,10.240395559375,9.57337473515625,10.242541359375C9.57337473515625,10.243614159375,9.57337473515625,10.244686159375,9.57337473515625,10.246831859375ZM9.55405523515625,10.286523859375C9.54761693515625,10.292241059375,9.54296873515625,10.296532659375,9.54010393515625,10.299397459375C9.52829743515625,10.279014559375,9.51863863515625,10.257560759375,9.50575923515625,10.237177859375L9.55405523515625,10.287596659375M9.54117773515625,10.301543259375C9.53831103515625,10.301543259375,9.53652953515625,10.301543259375,9.53581043515625,10.301543259375C9.53688433515625,10.300470359375,9.53903003515625,10.299397459375,9.54010393515625,10.298324559375C9.54082293515625,10.299750359375,9.54117773515625,10.300823259375,9.54117773515625,10.301543259375ZM9.52185823515625,10.314415959375C9.52113913515625,10.310124359375,9.52043153515625,10.306552859375,9.51971153515625,10.303688959375C9.52507873515625,10.303688959375,9.53044413515625,10.303688959375,9.53581043515625,10.302616159375C9.53151793515625,10.306907659375,9.52615163515625,10.310124359375,9.52185823515625,10.314415959375ZM9.45424173515625,10.289741559375C9.45352173515625,10.286876659375,9.45281413515625,10.285097159375,9.45209503515625,10.284377059375C9.45424173515625,10.284377059375,9.45531563515625,10.286522859375,9.45746233515625,10.287595759375C9.45603463515625,10.289022459375,9.45531563515625,10.290095359375,9.45531563515625,10.290814359375M9.43706893515625,10.275794959375C9.44064423515625,10.273653059375,9.44350813515625,10.271860159375,9.44565673515625,10.270431559375C9.44780253515625,10.274723059375,9.44994923515625,10.280086559375,9.45209503515625,10.284377059375C9.44672963515625,10.281159359375,9.44243623515625,10.277940759375,9.43706893515625,10.275794959375ZM9.44350813515625,10.267215759375L9.50146583515625,10.238250759375C9.48322013515625,10.250051459375,9.46390053515625,10.259706459375,9.44565673515625,10.270431559375C9.44565673515625,10.269363359375,9.44565673515625,10.268289559375,9.44458203515625,10.267217659375M9.43599513515625,10.224303259375C9.43599513515625,10.217867859375,9.43921563515625,10.211430559375,9.44028953515625,10.204994159375C9.46175383515625,10.214649159375,9.48214623515625,10.225376159375,9.50361153515625,10.235032059375L9.43599513515625,10.224303259375ZM9.43706893515625,10.203924159375C9.43921563515625,10.202495559375,9.44064423515625,10.201058359375,9.44136233515625,10.199633559375C9.44136233515625,10.201778459375,9.44136233515625,10.202851259375,9.44028953515625,10.204994159375C9.43921563515625,10.204997059375,9.43814273515625,10.204997059375,9.43706893515625,10.203924159375ZM9.44672963515625,10.181394559375C9.45030303515625,10.184967059375,9.45316793515625,10.187475159375,9.45531563515625,10.188904759375C9.45102123515625,10.193196259375,9.44672963515625,10.196413959375,9.44243523515625,10.200705559375C9.44350813515625,10.194269159375,9.44565583515625,10.187831859375,9.44672963515625,10.181394559375ZM9.45746233515625,10.186758959375L9.50253963515625,10.232886359375C9.48429393515625,10.218940759375,9.47141453515625,10.202851259375,9.45531563515625,10.188904759375C9.45603463515625,10.188186659375,9.45674233515625,10.187475159375,9.45746233515625,10.186758959375ZM9.51434513515625,10.165304159375C9.51649283515625,10.165304159375,9.51971243515625,10.165304159375,9.52185823515625,10.165304159375C9.51971243515625,10.163877459375,9.51721093515625,10.162439359375,9.51434423515625,10.161012659375C9.51434513515625,10.162085559375,9.51434513515625,10.163158459375,9.51434513515625,10.165304159375ZM9.65065093515625,9.931446059375C9.62703803515625,10.007609359375,9.60986713515625,10.082702659375,9.59376713515625,10.159939759375C9.57552143515625,10.162085559375,9.55620293515625,10.162085559375,9.53688433515625,10.164231259375C9.57015513515625,10.082701659375,9.60879423515625,10.005463559375,9.65065093515625,9.931446059375Z" fill="#FFFFFF" fill-opacity="1"/></g></svg>